<?xml version="1.0" encoding="utf-8"?>
<!-- Generator: Adobe Illustrator 28.0.0, SVG Export Plug-In . SVG Version: 6.00 Build 0)  -->
<svg version="1.1" id="Layer_1" xmlns="http://www.w3.org/2000/svg" xmlns:xlink="http://www.w3.org/1999/xlink" x="0px" y="0px"
	 viewBox="0 0 1121.3 500" style="enable-background:new 0 0 1121.3 500;" xml:space="preserve">
<style type="text/css">
	.st0{fill:#FBFBFB;}
</style>
<g>
	<path class="st0" d="M166.7,330.1V170c0-2,1.1-3.2,3.2-3.2h63.2c31.4,0,49.1,15.7,49.1,42.8v2.3c0,16.8-9.1,29.6-23.4,34.4
		c18,4.1,28.7,18,28.7,38v2.5c0,29.8-19.3,46.6-53.2,46.6h-64.4C167.8,333.3,166.7,332.2,166.7,330.1z M227.9,232.8
		c12.3,0,19.8-6.4,19.8-16.8v-1.8c0-10.5-7.3-16.6-19.8-16.6h-25.7v35.3L227.9,232.8L227.9,232.8z M230.1,302.6
		c13.9,0,21.8-6.6,21.8-18v-3.2c0-11.6-8-18.2-21.8-18.2h-28v39.4L230.1,302.6L230.1,302.6z"/>
	<path class="st0" d="M310,330.1V170c0-2,1.1-3.2,3.2-3.2h29.1c2,0,3.2,1.1,3.2,3.2v160.2c0,2-1.1,3.2-3.2,3.2h-29.1
		C311.1,333.3,310,332.2,310,330.1z"/>
	<path class="st0" d="M486.6,330.1V170c0-2,1.1-3.2,3.2-3.2h29.1c2,0,3.2,1.1,3.2,3.2v130.6h51.7c2,0,3.2,1.1,3.2,3.2v26.4
		c0,2-1.1,3.2-3.2,3.2h-84C487.7,333.3,486.6,332.2,486.6,330.1z"/>
	<path class="st0" d="M377.6,330.1V170c0-2,1.1-3.2,3.2-3.2h29.1c2,0,3.2,1.1,3.2,3.2v130.6h51.7c2,0,3.2,1.1,3.2,3.2v26.4
		c0,2-1.1,3.2-3.2,3.2h-84C378.7,333.3,377.6,332.2,377.6,330.1z"/>
	<path class="st0" d="M732.5,330.1V170c0-2,1.1-3.2,3.2-3.2h29.1c2,0,3.2,1.1,3.2,3.2v130.6h51.7c2,0,3.2,1.1,3.2,3.2v26.4
		c0,2-1.1,3.2-3.2,3.2h-84C733.7,333.3,732.5,332.2,732.5,330.1z"/>
	<path class="st0" d="M595.6,330.1V170c0-2,1.1-3.2,3.2-3.2h54.6c36.6,0,56.2,21.6,56.2,53v11.4c0,32.3-19.6,52.8-56.2,52.8h-22.3
		v46.2c0,2-1.1,3.2-3.2,3.2h-29.1C596.7,333.3,595.6,332.2,595.6,330.1z M650.6,252.3c17.5,0,23.4-8,23.4-23.4v-6.6
		c0-15-5.9-23.7-23.4-23.7H631v53.7H650.6z"/>
	<path class="st0" d="M951.4,166.8H844.5c-1.8,0-3.2,1.4-3.2,3.2v26.4c0,1.8,1.4,3.2,3.2,3.2H913l-69.4,98.3c-1.5,2.1-2.2,4.5-2.2,7
		v25.3c0,1.8,1.4,3.2,3.2,3.2h106.9c1.8,0,3.2-1.4,3.2-3.2v-26.4c0-1.8-1.4-3.2-3.2-3.2h-69.8l70.8-100.9c1.4-2.1,2.2-4.5,2.2-7V170
		C954.6,168.2,953.2,166.8,951.4,166.8z"/>
</g>
</svg>
