<?xml version="1.0" encoding="UTF-8"?>
<svg id="Layer_1" data-name="Layer 1" xmlns="http://www.w3.org/2000/svg" viewBox="0 0 605 110.28">
  <defs>
    <style>
      .cls-1 {
        fill: #27084f;
      }

      .cls-1, .cls-2 {
        stroke-width: 0px;
      }

      .cls-2 {
        fill: #fc9026;
      }
    </style>
  </defs>
  <path class="cls-1" d="M170.68,46.8h-11.93v22.07c0,1.84.46,3.18,1.37,4.03.92.85,2.25,1.32,4.01,1.44,1.76.1,3.94.09,6.55-.06v12.42c-9.36,1.06-15.95.18-19.79-2.66-3.84-2.83-5.75-7.89-5.75-15.18v-22.07h-9.18v-13.16h9.18v-10.72l13.62-4.14v14.86h11.93v13.17Z"/>
  <path class="cls-1" d="M222.98,80.07c-5.42,5.41-12.03,8.12-19.84,8.12s-14.4-2.71-19.79-8.12c-5.38-5.41-8.07-12.04-8.07-19.9s2.69-14.48,8.07-19.9c5.38-5.41,11.98-8.12,19.79-8.12s14.42,2.71,19.84,8.12c5.42,5.41,8.13,12.05,8.13,19.9s-2.71,14.49-8.13,19.9ZM192.97,70.67c2.71,2.76,6.1,4.14,10.18,4.14s7.49-1.38,10.24-4.14c2.75-2.76,4.12-6.27,4.12-10.51s-1.37-7.75-4.12-10.51c-2.75-2.76-6.16-4.14-10.24-4.14s-7.48,1.38-10.18,4.14c-2.71,2.76-4.06,6.27-4.06,10.51s1.35,7.75,4.06,10.51Z"/>
  <path class="cls-1" d="M273.36,33.63h14.56l-19.24,53.15c-2.75,7.58-6.38,13.08-10.91,16.52-4.53,3.44-10.17,4.98-16.91,4.62v-12.74c3.66.07,6.56-.7,8.71-2.34,2.15-1.62,3.85-4.25,5.12-7.85l-21.64-51.37h14.88l13.76,35.66,11.68-35.66Z"/>
  <path class="cls-1" d="M332.85,33.63h14.56l-19.24,53.15c-2.75,7.58-6.38,13.08-10.91,16.52-4.53,3.44-10.17,4.98-16.91,4.62v-12.74c3.66.07,6.56-.7,8.71-2.34,2.15-1.62,3.85-4.25,5.12-7.85l-21.63-51.37h14.88l13.76,35.66,11.67-35.66Z"/>
  <path class="cls-1" d="M359.01,27.27c-2.25,0-4.2-.84-5.86-2.5-1.65-1.66-2.48-3.63-2.48-5.89s.82-4.25,2.48-5.95c1.65-1.7,3.6-2.55,5.86-2.55s4.31.85,5.96,2.55c1.65,1.7,2.48,3.68,2.48,5.95s-.83,4.23-2.48,5.89c-1.64,1.66-3.63,2.5-5.96,2.5ZM352.26,86.7v-53.07h13.62v53.07h-13.62Z"/>
  <path class="cls-1" d="M401.2,32.14c7.11,0,13.18,2.71,18.2,8.12,5.03,5.41,7.55,12.05,7.55,19.9s-2.51,14.48-7.55,19.9c-5.03,5.41-11.1,8.12-18.2,8.12s-13.09-2.58-17.1-7.75v6.27h-13.62V12.4h13.62v27.49c4.02-5.17,9.71-7.75,17.1-7.75ZM388.22,70.94c2.75,2.8,6.23,4.19,10.45,4.19s7.72-1.4,10.5-4.19c2.77-2.8,4.17-6.39,4.17-10.77s-1.39-7.97-4.17-10.77c-2.78-2.79-6.28-4.19-10.5-4.19s-7.71,1.4-10.45,4.19c-2.75,2.8-4.12,6.39-4.12,10.77s1.37,7.98,4.12,10.77Z"/>
  <path class="cls-1" d="M459.23,12.41c7.11,0,13.09,2.4,17.94,7.21,4.86,4.81,7.29,10.72,7.29,17.72s-2.43,12.92-7.29,17.72c-4.86,4.81-10.83,7.21-17.94,7.21h-12.98v24.41h-14.56V12.4h27.54ZM459.23,48.6c3.09,0,5.66-1.08,7.71-3.24,2.04-2.16,3.06-4.83,3.06-8.01s-1.02-5.95-3.06-8.07c-2.05-2.12-4.6-3.18-7.71-3.18h-12.98v22.51h12.98Z"/>
  <path class="cls-1" d="M531.91,33.63h13.62v53.07h-13.62v-6.27c-4.08,5.17-9.82,7.75-17.2,7.75s-13.07-2.71-18.1-8.12c-5.03-5.41-7.55-12.04-7.55-19.9s2.51-14.48,7.55-19.9c5.03-5.41,11.07-8.12,18.1-8.12,7.39,0,13.12,2.58,17.2,7.75v-6.27ZM506.79,70.94c2.75,2.8,6.23,4.19,10.45,4.19s7.72-1.4,10.5-4.19c2.77-2.8,4.17-6.39,4.17-10.77s-1.39-7.97-4.17-10.77c-2.78-2.79-6.28-4.19-10.5-4.19s-7.71,1.4-10.45,4.19c-2.75,2.8-4.12,6.39-4.12,10.77s1.37,7.98,4.12,10.77Z"/>
  <path class="cls-1" d="M590.44,33.63h14.56l-19.24,53.15c-2.75,7.58-6.38,13.08-10.91,16.52-4.53,3.44-10.17,4.98-16.91,4.62v-12.74c3.66.07,6.56-.7,8.71-2.34,2.15-1.62,3.85-4.25,5.12-7.85l-21.63-51.37h14.88l13.76,35.66,11.68-35.66Z"/>
  <path class="cls-1" d="M56.23,22.16h-17.08c-1.03,0-1.92.69-2.19,1.69L14.69,107.41c-.38,1.45.7,2.87,2.19,2.87h17.08c1.03,0,1.92-.69,2.19-1.69L58.43,25.03c.38-1.45-.71-2.87-2.19-2.87Z"/>
  <path class="cls-1" d="M24.11,44.06H7.03c-1.03,0-1.92.69-2.19,1.69L.08,63.61c-.38,1.45.7,2.87,2.19,2.87h17.08c1.03,0,1.92-.69,2.19-1.69l4.75-17.86c.38-1.46-.7-2.87-2.19-2.87Z"/>
  <path class="cls-2" d="M88.41,0h-17.08c-1.03,0-1.92.7-2.19,1.69l-22.26,83.56c-.38,1.45.7,2.87,2.19,2.87h17.08c1.03,0,1.92-.7,2.19-1.69L90.6,2.87c.39-1.46-.69-2.87-2.19-2.87Z"/>
  <path class="cls-2" d="M111.71,11.21h-17.08c-1.03,0-1.92.7-2.19,1.69l-4.75,17.86c-.38,1.45.7,2.87,2.19,2.87h17.08c1.03,0,1.92-.7,2.2-1.69l4.75-17.86c.38-1.45-.7-2.87-2.2-2.87Z"/>
</svg>