<?xml version="1.0" encoding="utf-8"?>
<!-- Generator: Adobe Illustrator 26.3.1, SVG Export Plug-In . SVG Version: 6.00 Build 0)  -->
<svg version="1.1" id="Layer_1" xmlns="http://www.w3.org/2000/svg" xmlns:xlink="http://www.w3.org/1999/xlink" x="0px" y="0px"
	 viewBox="0 0 512 512" style="enable-background:new 0 0 512 512;" xml:space="preserve">
<style type="text/css">
	.st0{fill:#27164F;}
	.st1{fill:#F7902B;}
</style>
<g>
	<path class="st0" d="M252.56,102.88h-76.72c-4.63,0-8.62,3.2-9.84,7.85L65.97,498.68c-1.71,6.73,3.14,13.32,9.84,13.32h76.72
		c4.63,0,8.62-3.2,9.84-7.85l100.08-387.95c1.71-6.73-3.19-13.32-9.84-13.32H252.56z"/>
	<path class="st0" d="M108.28,204.56H31.56c-4.63,0-8.62,3.2-9.84,7.85L0.34,295.32c-1.71,6.73,3.14,13.32,9.84,13.32H86.9
		c4.63,0,8.62-3.2,9.84-7.85l21.34-82.92c1.71-6.78-3.14-13.32-9.84-13.32H108.28z"/>
	<path class="st1" d="M397.11,0h-76.72c-4.63,0-8.62,3.25-9.84,7.85l-99.99,387.95c-1.71,6.73,3.14,13.32,9.84,13.32h76.72
		c4.63,0,8.62-3.25,9.84-7.85l99.99-387.95C408.7,6.55,403.85,0,397.11,0z"/>
	<path class="st1" d="M501.77,52.04h-76.72c-4.63,0-8.62,3.25-9.84,7.85l-21.34,82.92c-1.71,6.73,3.14,13.32,9.84,13.32h76.72
		c4.63,0,8.62-3.25,9.88-7.85l21.34-82.92C513.36,58.64,508.51,52.04,501.77,52.04z"/>
</g>
</svg>
